<?xml version="1.0" encoding="utf-8"?><svg xmlns="http://www.w3.org/2000/svg" xmlns:xlink="http://www.w3.org/1999/xlink"><symbol viewBox="0 0 24 25" id="arrow" xmlns="http://www.w3.org/2000/svg"><path d="M12 4.5L10.59 5.91L16.17 11.5H4V13.5H16.17L10.59 19.09L12 20.5L20 12.5L12 4.5Z"/></symbol><symbol viewBox="0 0 56 56" id="envelope" xmlns="http://www.w3.org/2000/svg"><path d="M 9.4843 48.1914 L 47.2184 48.1914 C 51.4376 48.1914 53.8751 45.7539 53.8751 40.9258 L 53.8751 15.0508 C 53.8751 10.2461 51.4141 7.8086 46.5157 7.8086 L 8.7812 7.8086 C 4.5858 7.8086 2.1249 10.2227 2.1249 15.0508 L 2.1249 40.9258 C 2.1249 45.7773 4.6093 48.1914 9.4843 48.1914 Z M 25.2109 29.1836 L 7.5155 11.7227 C 8.0312 11.5117 8.6405 11.3945 9.3671 11.3945 L 46.6564 11.3945 C 47.3826 11.3945 48.0157 11.5117 48.5548 11.7696 L 30.8827 29.1836 C 29.8749 30.1914 28.9843 30.6367 28.0468 30.6367 C 27.1093 30.6367 26.2187 30.1914 25.2109 29.1836 Z M 5.7109 40.9258 L 5.7109 15.0508 C 5.7109 14.8867 5.7109 14.9570 5.7109 14.8164 L 19.1874 28.0352 L 5.7343 41.3242 C 5.7109 41.2070 5.7109 41.0664 5.7109 40.9258 Z M 50.2890 15.0742 L 50.2890 40.9492 C 50.2890 41.0430 50.2890 41.1602 50.2890 41.2539 L 36.9062 28.0352 L 50.2890 14.8867 C 50.2890 15.0742 50.2890 15.0742 50.2890 15.0742 Z M 9.3671 44.6055 C 8.6874 44.6055 8.1249 44.5117 7.6327 44.3008 L 21.6484 30.4492 L 23.1718 31.9492 C 24.8124 33.5664 26.3827 34.2461 28.0468 34.2461 C 29.6874 34.2461 31.2812 33.5664 32.9218 31.9492 L 34.4452 30.4492 L 48.4376 44.2773 C 47.9452 44.5117 47.3360 44.6055 46.6564 44.6055 Z"/></symbol><symbol viewBox="0 0 48 48" id="facebook" xmlns="http://www.w3.org/2000/svg"><g clip-path="url(#cclip0_17_61)"><path d="M24 0C10.7453 0 0 10.7453 0 24C0 35.255 7.74912 44.6995 18.2026 47.2934V31.3344H13.2538V24H18.2026V20.8397C18.2026 12.671 21.8995 8.8848 29.9194 8.8848C31.44 8.8848 34.0637 9.18336 35.137 9.48096V16.129C34.5706 16.0694 33.5866 16.0397 32.3645 16.0397C28.4294 16.0397 26.9088 17.5306 26.9088 21.4061V24H34.7482L33.4013 31.3344H26.9088V47.8243C38.7926 46.3891 48.001 36.2707 48.001 24C48 10.7453 37.2547 0 24 0Z"/></g><defs><clipPath id="cclip0_17_61"><rect width="48" height="48"/></clipPath></defs></symbol><symbol viewBox="0 0 48 48" id="instagram" xmlns="http://www.w3.org/2000/svg"><g clip-path="url(#dclip0_17_63)"><path d="M24 4.32187C30.4125 4.32187 31.1719 4.35 33.6938 4.4625C36.0375 4.56562 37.3031 4.95938 38.1469 5.2875C39.2625 5.71875 40.0688 6.24375 40.9031 7.07812C41.7469 7.92188 42.2625 8.71875 42.6938 9.83438C43.0219 10.6781 43.4156 11.9531 43.5188 14.2875C43.6313 16.8187 43.6594 17.5781 43.6594 23.9813C43.6594 30.3938 43.6313 31.1531 43.5188 33.675C43.4156 36.0188 43.0219 37.2844 42.6938 38.1281C42.2625 39.2438 41.7375 40.05 40.9031 40.8844C40.0594 41.7281 39.2625 42.2438 38.1469 42.675C37.3031 43.0031 36.0281 43.3969 33.6938 43.5C31.1625 43.6125 30.4031 43.6406 24 43.6406C17.5875 43.6406 16.8281 43.6125 14.3063 43.5C11.9625 43.3969 10.6969 43.0031 9.85313 42.675C8.7375 42.2438 7.93125 41.7188 7.09688 40.8844C6.25313 40.0406 5.7375 39.2438 5.30625 38.1281C4.97813 37.2844 4.58438 36.0094 4.48125 33.675C4.36875 31.1438 4.34063 30.3844 4.34063 23.9813C4.34063 17.5688 4.36875 16.8094 4.48125 14.2875C4.58438 11.9437 4.97813 10.6781 5.30625 9.83438C5.7375 8.71875 6.2625 7.9125 7.09688 7.07812C7.94063 6.23438 8.7375 5.71875 9.85313 5.2875C10.6969 4.95938 11.9719 4.56562 14.3063 4.4625C16.8281 4.35 17.5875 4.32187 24 4.32187ZM24 0C17.4844 0 16.6688 0.028125 14.1094 0.140625C11.5594 0.253125 9.80625 0.665625 8.2875 1.25625C6.70312 1.875 5.3625 2.69062 4.03125 4.03125C2.69063 5.3625 1.875 6.70313 1.25625 8.27813C0.665625 9.80625 0.253125 11.55 0.140625 14.1C0.028125 16.6687 0 17.4844 0 24C0 30.5156 0.028125 31.3312 0.140625 33.8906C0.253125 36.4406 0.665625 38.1938 1.25625 39.7125C1.875 41.2969 2.69063 42.6375 4.03125 43.9688C5.3625 45.3 6.70313 46.125 8.27813 46.7344C9.80625 47.325 11.55 47.7375 14.1 47.85C16.6594 47.9625 17.475 47.9906 23.9906 47.9906C30.5063 47.9906 31.3219 47.9625 33.8813 47.85C36.4313 47.7375 38.1844 47.325 39.7031 46.7344C41.2781 46.125 42.6188 45.3 43.95 43.9688C45.2812 42.6375 46.1063 41.2969 46.7156 39.7219C47.3063 38.1938 47.7188 36.45 47.8313 33.9C47.9438 31.3406 47.9719 30.525 47.9719 24.0094C47.9719 17.4938 47.9438 16.6781 47.8313 14.1188C47.7188 11.5688 47.3063 9.81563 46.7156 8.29688C46.125 6.70312 45.3094 5.3625 43.9688 4.03125C42.6375 2.7 41.2969 1.875 39.7219 1.26562C38.1938 0.675 36.45 0.2625 33.9 0.15C31.3313 0.028125 30.5156 0 24 0Z"/><path d="M24 11.6719C17.1938 11.6719 11.6719 17.1938 11.6719 24C11.6719 30.8062 17.1938 36.3281 24 36.3281C30.8062 36.3281 36.3281 30.8062 36.3281 24C36.3281 17.1938 30.8062 11.6719 24 11.6719ZM24 31.9969C19.5844 31.9969 16.0031 28.4156 16.0031 24C16.0031 19.5844 19.5844 16.0031 24 16.0031C28.4156 16.0031 31.9969 19.5844 31.9969 24C31.9969 28.4156 28.4156 31.9969 24 31.9969Z"/><path d="M39.6937 11.1843C39.6937 12.778 38.4 14.0624 36.8156 14.0624C35.2219 14.0624 33.9375 12.7687 33.9375 11.1843C33.9375 9.59053 35.2313 8.30615 36.8156 8.30615C38.4 8.30615 39.6937 9.5999 39.6937 11.1843Z"/></g><defs><clipPath id="dclip0_17_63"><rect width="48" height="48"/></clipPath></defs></symbol><symbol viewBox="0 0 48 48" id="telegram" xmlns="http://www.w3.org/2000/svg"><g clip-path="url(#eclip0_318_75)"><path fill-rule="evenodd" clip-rule="evenodd" d="M48 24C48 37.2548 37.2548 48 24 48C10.7452 48 0 37.2548 0 24C0 10.7452 10.7452 0 24 0C37.2548 0 48 10.7452 48 24ZM24.8601 17.7179C22.5257 18.6888 17.8603 20.6984 10.8638 23.7466C9.72766 24.1984 9.13251 24.6404 9.07834 25.0726C8.98677 25.803 9.90142 26.0906 11.1469 26.4822C11.3164 26.5355 11.4919 26.5907 11.6719 26.6492C12.8973 27.0475 14.5457 27.5135 15.4026 27.5321C16.1799 27.5489 17.0475 27.2284 18.0053 26.5707C24.5423 22.158 27.9168 19.9276 28.1286 19.8795C28.2781 19.8456 28.4852 19.803 28.6255 19.9277C28.7659 20.0524 28.7521 20.2886 28.7372 20.352C28.6466 20.7383 25.0562 24.0762 23.1982 25.8036C22.619 26.3421 22.2081 26.724 22.1242 26.8113C21.936 27.0067 21.7443 27.1915 21.56 27.3692C20.4215 28.4667 19.5678 29.2896 21.6072 30.6336C22.5873 31.2794 23.3715 31.8135 24.1539 32.3463C25.0084 32.9282 25.8606 33.5085 26.9632 34.2313C27.2442 34.4155 27.5125 34.6068 27.7738 34.7931C28.7681 35.5019 29.6615 36.1388 30.7652 36.0373C31.4065 35.9782 32.0689 35.3752 32.4053 33.5767C33.2004 29.3263 34.7633 20.1169 35.1244 16.3219C35.1561 15.9895 35.1163 15.5639 35.0843 15.3771C35.0523 15.1904 34.9855 14.9242 34.7427 14.7272C34.4552 14.4939 34.0113 14.4447 33.8127 14.4482C32.91 14.4641 31.5251 14.9456 24.8601 17.7179Z"/></g><defs><clipPath id="eclip0_318_75"><rect width="48" height="48"/></clipPath></defs></symbol><symbol viewBox="0 0 48 48" id="threads" xmlns="http://www.w3.org/2000/svg"><path d="M35.3843 22.2471C35.1775 22.148 34.9675 22.0526 34.7547 21.9613C34.3842 15.1346 30.654 11.2262 24.3905 11.1862C24.3621 11.1861 24.3339 11.1861 24.3055 11.1861C20.5591 11.1861 17.4433 12.7852 15.5255 15.6952L18.9702 18.0582C20.4029 15.8846 22.6513 15.4212 24.3071 15.4212C24.3263 15.4212 24.3455 15.4212 24.3644 15.4214C26.4268 15.4345 27.983 16.0342 28.9902 17.2035C29.7232 18.0548 30.2135 19.2313 30.4562 20.716C28.6277 20.4052 26.6502 20.3096 24.5362 20.4308C18.5812 20.7738 14.7528 24.247 15.0099 29.073C15.1404 31.521 16.3599 33.627 18.4438 35.0028C20.2056 36.1657 22.4748 36.7345 24.8331 36.6058C27.9475 36.435 30.3907 35.2467 32.0952 33.074C33.3897 31.424 34.2085 29.2857 34.57 26.5915C36.0542 27.4872 37.1543 28.666 37.7617 30.083C38.7948 32.4917 38.855 36.45 35.6253 39.677C32.7955 42.504 29.394 43.727 24.2534 43.7648C18.551 43.7225 14.2384 41.8937 11.4345 38.3293C8.80887 34.9915 7.45192 30.1705 7.4013 24C7.45192 17.8295 8.80887 13.0084 11.4345 9.67068C14.2384 6.10623 18.551 4.2775 24.2533 4.23513C29.997 4.27782 34.3848 6.11535 37.296 9.697C38.7235 11.4534 39.7998 13.6622 40.5093 16.2376L44.546 15.1606C43.686 11.9906 42.3327 9.25893 40.4912 6.9935C36.759 2.40167 31.3005 0.048787 24.2674 0H24.2392C17.2204 0.0486175 11.823 2.41045 8.19707 7.01982C4.97047 11.1216 3.3061 16.8289 3.25017 23.9831L3.25 24L3.25017 24.0169C3.3061 31.171 4.97047 36.8785 8.19707 40.9803C11.823 45.5895 17.2204 47.9515 24.2392 48H24.2674C30.5075 47.9567 34.906 46.323 38.5295 42.7028C43.2702 37.9665 43.1275 32.0298 41.565 28.3853C40.444 25.7717 38.3068 23.649 35.3843 22.2471ZM24.6101 32.3768C22.0001 32.5238 19.2886 31.3523 19.1549 28.843C19.0558 26.9825 20.479 24.9065 24.7703 24.6592C25.2617 24.6308 25.744 24.617 26.2178 24.617C27.7765 24.617 29.2347 24.7684 30.5605 25.0583C30.066 31.2337 27.1655 32.2365 24.6101 32.3768Z"/></symbol><symbol viewBox="0 0 48 48" id="tiktok" xmlns="http://www.w3.org/2000/svg"><path d="M34.1451 0H26.0556V32.6956C26.0556 36.5913 22.9444 39.7913 19.0725 39.7913C15.2007 39.7913 12.0894 36.5913 12.0894 32.6956C12.0894 28.8696 15.1315 25.7391 18.8651 25.6V17.3913C10.6374 17.5304 4 24.2783 4 32.6956C4 41.1827 10.7757 48 19.1417 48C27.5075 48 34.2833 41.1131 34.2833 32.6956V15.9304C37.3255 18.1565 41.059 19.4783 45 19.5479V11.3391C38.9157 11.1304 34.1451 6.12173 34.1451 0Z"/></symbol></svg>