<?xml version="1.0" encoding="utf-8"?><svg viewBox="0 0 800 800" xmlns="http://www.w3.org/2000/svg" xmlns:xlink="http://www.w3.org/1999/xlink"><style>:root>svg{display:none}:root>svg:target{display:block}</style><svg fill="none" viewBox="0 0 24 25" id="arrow" xmlns="http://www.w3.org/2000/svg"><path d="m12 4.5-1.41 1.41 5.58 5.59H4v2h12.17l-5.58 5.59L12 20.5l8-8-8-8Z" fill="#fff"/></svg><svg viewBox="0 0 56 56" id="envelope" xmlns="http://www.w3.org/2000/svg"><path d="M9.484 48.191h37.734c4.22 0 6.657-2.437 6.657-7.265V15.05c0-4.805-2.46-7.242-7.36-7.242H8.782c-4.195 0-6.656 2.414-6.656 7.242v25.875c0 4.851 2.484 7.265 7.36 7.265Zm15.727-19.007L7.516 11.723c.515-.211 1.124-.329 1.851-.329h37.29c.726 0 1.359.118 1.898.376L30.883 29.184c-1.008 1.007-1.899 1.453-2.836 1.453-.938 0-1.828-.446-2.836-1.453ZM5.71 40.926v-26.11l13.476 13.22L5.734 41.323c-.023-.117-.023-.258-.023-.398Zm44.578-25.852v26.18L36.906 28.035 50.29 14.887v.187ZM9.367 44.606c-.68 0-1.242-.094-1.734-.305l14.015-13.852 1.524 1.5c1.64 1.617 3.21 2.297 4.875 2.297 1.64 0 3.234-.68 4.875-2.297l1.523-1.5 13.993 13.828c-.493.235-1.102.328-1.782.328Z"/></svg><svg fill="none" viewBox="0 0 48 48" id="facebook" xmlns="http://www.w3.org/2000/svg"><g clip-path="url(#ca)"><path d="M24 0C10.745 0 0 10.745 0 24c0 11.255 7.75 20.7 18.203 23.293V31.334h-4.95V24h4.95v-3.16c0-8.169 3.697-11.955 11.716-11.955 1.521 0 4.145.298 5.218.596v6.648c-.566-.06-1.55-.09-2.773-.09-3.935 0-5.455 1.492-5.455 5.367V24h7.84L33.4 31.334H26.91v16.49C38.793 46.39 48 36.271 48 24 48 10.745 37.255 0 24 0Z" fill="#fff"/></g><defs><clipPath id="ca"><path fill="#fff" d="M0 0h48v48H0z"/></clipPath></defs></svg><svg fill="none" viewBox="0 0 48 48" id="instagram" xmlns="http://www.w3.org/2000/svg"><g clip-path="url(#da)" fill="#fff"><path d="M24 4.322c6.413 0 7.172.028 9.694.14 2.343.104 3.61.497 4.453.825 1.116.432 1.922.957 2.756 1.791.844.844 1.36 1.64 1.79 2.756.329.844.723 2.12.826 4.454.112 2.53.14 3.29.14 9.693 0 6.413-.028 7.172-.14 9.694-.103 2.344-.497 3.61-.825 4.453-.431 1.116-.957 1.922-1.79 2.756-.845.844-1.642 1.36-2.757 1.791-.844.328-2.119.722-4.453.825-2.532.112-3.29.14-9.694.14-6.413 0-7.172-.028-9.694-.14-2.343-.103-3.61-.497-4.453-.825-1.115-.431-1.922-.956-2.756-1.79-.844-.844-1.36-1.641-1.79-2.757-.329-.844-.723-2.119-.826-4.453-.112-2.531-.14-3.29-.14-9.694 0-6.412.028-7.172.14-9.694.103-2.343.497-3.609.825-4.453.431-1.115.957-1.921 1.79-2.756.845-.844 1.642-1.36 2.757-1.79.844-.329 2.119-.722 4.453-.825 2.522-.113 3.281-.141 9.694-.141ZM24 0c-6.516 0-7.331.028-9.89.14-2.55.113-4.304.526-5.822 1.116-1.585.619-2.926 1.435-4.257 2.775-1.34 1.332-2.156 2.672-2.775 4.247C.666 9.806.253 11.55.141 14.1.028 16.669 0 17.484 0 24s.028 7.331.14 9.89c.113 2.55.526 4.304 1.116 5.822.619 1.585 1.435 2.925 2.775 4.257a11.732 11.732 0 0 0 4.247 2.765c1.528.591 3.272 1.003 5.822 1.116 2.56.112 3.375.14 9.89.14 6.516 0 7.332-.028 9.891-.14 2.55-.113 4.303-.525 5.822-1.116a11.732 11.732 0 0 0 4.247-2.765 11.732 11.732 0 0 0 2.766-4.247c.59-1.528 1.003-3.272 1.115-5.822.113-2.56.14-3.375.14-9.89 0-6.516-.027-7.332-.14-9.891-.112-2.55-.525-4.303-1.115-5.822-.591-1.594-1.407-2.935-2.747-4.266a11.732 11.732 0 0 0-4.247-2.765C38.194.675 36.45.262 33.9.15 31.331.028 30.516 0 24 0Z"/><path d="M24 11.672c-6.806 0-12.328 5.522-12.328 12.328 0 6.806 5.522 12.328 12.328 12.328 6.806 0 12.328-5.522 12.328-12.328 0-6.806-5.522-12.328-12.328-12.328Zm0 20.325a7.998 7.998 0 0 1 0-15.994 7.998 7.998 0 0 1 0 15.994ZM39.694 11.184a2.879 2.879 0 1 1-2.878-2.878 2.885 2.885 0 0 1 2.878 2.878Z"/></g><defs><clipPath id="da"><path fill="#fff" d="M0 0h48v48H0z"/></clipPath></defs></svg><svg fill="none" viewBox="0 0 48 48" id="telegram" xmlns="http://www.w3.org/2000/svg"><g clip-path="url(#ea)"><path fill-rule="evenodd" clip-rule="evenodd" d="M48 24c0 13.255-10.745 24-24 24S0 37.255 0 24 10.745 0 24 0s24 10.745 24 24Zm-23.14-6.282c-2.334.97-7 2.98-13.996 6.029-1.136.451-1.731.893-1.786 1.326-.091.73.823 1.018 2.069 1.41.17.052.345.108.525.166 1.225.398 2.874.864 3.73.883.778.017 1.646-.304 2.603-.961 6.537-4.413 9.912-6.643 10.124-6.692.15-.033.356-.076.496.049.14.124.127.36.112.424-.09.386-3.68 3.724-5.539 5.452-.579.538-.99.92-1.074 1.007-.188.196-.38.38-.564.558-1.138 1.098-1.992 1.92.047 3.265.98.645 1.765 1.18 2.547 1.712.854.582 1.707 1.163 2.81 1.885.28.184.549.376.81.562.994.709 1.887 1.346 2.991 1.244.642-.059 1.304-.662 1.64-2.46.795-4.25 2.358-13.46 2.72-17.255a4.228 4.228 0 0 0-.04-.945c-.033-.187-.1-.453-.342-.65-.288-.233-.732-.282-.93-.279-.903.016-2.288.498-8.953 3.27Z" fill="#fff"/></g><defs><clipPath id="ea"><path fill="#fff" d="M0 0h48v48H0z"/></clipPath></defs></svg><svg fill="none" viewBox="0 0 48 48" id="threads" xmlns="http://www.w3.org/2000/svg"><path d="M35.384 22.247c-.206-.099-.416-.194-.63-.286-.37-6.826-4.1-10.735-10.363-10.775h-.085c-3.747 0-6.863 1.6-8.78 4.51l3.444 2.362c1.433-2.173 3.681-2.637 5.337-2.637h.057c2.063.014 3.619.613 4.626 1.782.733.852 1.224 2.028 1.466 3.513-1.828-.31-3.806-.406-5.92-.285-5.955.343-9.783 3.816-9.526 8.642.13 2.448 1.35 4.554 3.434 5.93 1.762 1.163 4.03 1.731 6.39 1.603 3.114-.171 5.557-1.36 7.261-3.532 1.295-1.65 2.114-3.788 2.475-6.482 1.484.895 2.584 2.074 3.192 3.491 1.033 2.409 1.093 6.367-2.137 9.594-2.83 2.827-6.231 4.05-11.372 4.088-5.702-.043-10.015-1.871-12.819-5.436C8.81 34.992 7.452 30.17 7.401 24c.05-6.17 1.408-10.992 4.034-14.33 2.803-3.564 7.116-5.393 12.818-5.435 5.744.043 10.132 1.88 13.043 5.462 1.428 1.756 2.504 3.965 3.213 6.54l4.037-1.076c-.86-3.17-2.213-5.902-4.055-8.168C36.76 2.402 31.301.05 24.267 0h-.028C17.22.049 11.823 2.41 8.197 7.02c-3.227 4.102-4.89 9.809-4.947 16.963v.034c.056 7.154 1.72 12.862 4.947 16.963 3.626 4.61 9.023 6.972 16.042 7.02h.028c6.24-.043 10.639-1.677 14.262-5.297 4.741-4.736 4.598-10.673 3.036-14.318-1.121-2.613-3.258-4.736-6.18-6.138ZM24.61 32.377c-2.61.147-5.321-1.025-5.455-3.534-.1-1.86 1.324-3.936 5.615-4.184a25.08 25.08 0 0 1 1.448-.042c1.558 0 3.017.151 4.343.441-.495 6.176-3.395 7.178-5.95 7.319Z" fill="#fff"/></svg><svg fill="none" viewBox="0 0 48 48" id="tiktok" xmlns="http://www.w3.org/2000/svg"><path d="M34.145 0h-8.09v32.696c0 3.895-3.11 7.095-6.982 7.095-3.872 0-6.984-3.2-6.984-7.095 0-3.826 3.043-6.957 6.776-7.096v-8.209C10.637 17.531 4 24.278 4 32.696 4 41.183 10.776 48 19.142 48s15.141-6.887 15.141-15.304V15.93A18.732 18.732 0 0 0 45 19.548v-8.209C38.916 11.13 34.145 6.122 34.145 0Z" fill="#fff"/></svg></svg>